<?xml version="1.0" encoding="UTF-8"?>
<svg version="1.1" xmlns="http://www.w3.org/2000/svg" width="300" height="150">
<path d="M0 0 C3.79170389 4.0754779 6.60756024 8.40471892 9.3125 13.25 C9.67150391 13.87390625 10.03050781 14.4978125 10.40039062 15.140625 C13 19.73574405 13 19.73574405 13 22 C11.75126099 22.7113208 11.75126099 22.7113208 10.47729492 23.43701172 C7.38487116 25.19893432 4.29326594 26.96228887 1.2019043 28.72607422 C-0.13543824 29.48883437 -1.47300159 30.2512075 -2.81079102 31.01318359 C-4.73512204 32.10933056 -6.65865121 33.20687293 -8.58203125 34.3046875 C-9.17901321 34.6443454 -9.77599518 34.9840033 -10.3910675 35.33395386 C-12.98893265 36.81834818 -15.50877862 38.33918575 -18 40 C-20.56379418 40.56095983 -23.12816912 40.94743233 -25.72265625 41.33984375 C-28.35795663 41.83849645 -28.35795663 41.83849645 -30 45 C-30.02639829 47.29714187 -30.02639829 47.29714187 -29.625 49.6875 C-29.51414063 50.49574219 -29.40328125 51.30398437 -29.2890625 52.13671875 C-29.19367188 52.75160156 -29.09828125 53.36648437 -29 54 C-23.15016539 55.19453084 -23.15016539 55.19453084 -17.5625 53.8125 C-15.92598949 52.10997134 -15.92598949 52.10997134 -15.22729492 50.09375 C-13.56478457 47.25752785 -11.64854489 46.30582733 -8.80078125 44.6875 C-7.75599609 44.08679687 -6.71121094 43.48609375 -5.63476562 42.8671875 C-3.99024414 41.94292969 -3.99024414 41.94292969 -2.3125 41 C-0.69698242 40.07574219 -0.69698242 40.07574219 0.95117188 39.1328125 C3.0349315 37.94209271 5.12189596 36.75695953 7.21240234 35.578125 C9.53741722 34.26187906 11.84233646 32.91792539 14.14453125 31.5625 C17 30 17 30 19 30 C20.23681641 31.6965332 20.23681641 31.6965332 21.6015625 34.05078125 C22.09140625 34.89447266 22.58125 35.73816406 23.0859375 36.60742188 C23.59382813 37.50009766 24.10171875 38.39277344 24.625 39.3125 C25.3984375 40.63411133 25.3984375 40.63411133 26.1875 41.98242188 C30 48.61395296 30 48.61395296 30 52 C26.35448541 54.06306376 22.70852961 56.12534659 19.0625 58.1875 C18.04091797 58.76564453 17.01933594 59.34378906 15.96679688 59.93945312 C13.93988384 61.08566273 11.91157556 62.22940875 9.88183594 63.37060547 C8.04469903 64.40932554 6.21384824 65.45929982 4.39160156 66.52392578 C3.60881836 66.97622559 2.82603516 67.42852539 2.01953125 67.89453125 C1.3438208 68.2913208 0.66811035 68.68811035 -0.02807617 69.09692383 C-2.22223347 70.10177561 -3.97738258 70.33409646 -6.375 70.5 C-10.07799416 70.62471969 -10.07799416 70.62471969 -12.0625 73.1875 C-13.21952052 76.65856157 -13.13239079 78.5273349 -12 82 C-10.48105194 84.09764165 -10.48105194 84.09764165 -8 85 C-4.48694391 85.32026414 -4.48694391 85.32026414 -1 84 C-0.278125 82.92492187 0.44375 81.84984375 1.1875 80.7421875 C4.17867932 76.32123012 7.88069431 74.37646397 12.5625 72 C14.17001604 71.15114933 15.77678516 70.30088269 17.3828125 69.44921875 C18.16688477 69.03849121 18.95095703 68.62776367 19.75878906 68.20458984 C23.84936997 66.00601401 27.77414845 63.53734492 31.71484375 61.08203125 C34 60 34 60 37 61 C39.03761336 63.67913548 40.5627195 66.68138911 42.1875 69.625 C42.65091797 70.42035156 43.11433594 71.21570313 43.59179688 72.03515625 C46.24048325 76.7864081 48.03725839 80.43712382 47 86 C43.2925063 92.12405541 37.56289324 94.95297874 31.4375 98.375 C30.38900879 98.97368896 29.34051758 99.57237793 28.26025391 100.18920898 C25.43016384 101.80328051 22.59464556 103.40726678 19.75665283 105.00738525 C16.22895178 107.00074901 12.71192271 109.01284587 9.19433594 111.02398682 C6.24203841 112.71184157 3.28793061 114.39625526 0.32861328 116.07177734 C-5.28835569 119.25831956 -10.85868018 122.49874808 -16.34765625 125.90234375 C-17.33685059 126.51005615 -18.32604492 127.11776855 -19.34521484 127.74389648 C-21.17777245 128.87614068 -23.00063363 130.02430699 -24.81103516 131.19165039 C-30.15550398 134.48002856 -34.68360688 136.49750584 -41 135 C-47.36431844 131.36437323 -50.15475224 125.10218285 -53.5625 118.8125 C-54.11357422 117.82185547 -54.66464844 116.83121094 -55.23242188 115.81054688 C-58.65406694 109.62073819 -61.89088525 103.35211483 -65 97 C-64.27409668 96.5968457 -63.54819336 96.19369141 -62.80029297 95.77832031 C-60.08188339 94.26698355 -57.36475144 92.7533808 -54.6484375 91.23828125 C-52.90460841 90.26649984 -51.15934715 89.29728984 -49.4140625 88.328125 C-48.30546875 87.709375 -47.196875 87.090625 -46.0546875 86.453125 C-45.03874512 85.88754883 -44.02280273 85.32197266 -42.97607422 84.73925781 C-40.8641502 83.50502101 -38.80002682 82.18733177 -36.7746582 80.81567383 C-33.96062229 78.97423211 -32.60069494 78.5235784 -29.3125 78.4375 C-26.64671748 78.35923005 -25.40725215 78.30680879 -23.2578125 76.6875 C-21.13426726 73.83852005 -21.58076023 71.41380957 -22 68 C-23.47993156 65.43661311 -23.47993156 65.43661311 -26 64 C-29 63.33333333 -29 63.33333333 -32 64 C-34.16641665 65.66545339 -34.16641665 65.66545339 -36 68 C-39.55019546 71.85170493 -43.05161691 74.42625059 -47.61328125 76.98828125 C-48.53490303 77.51037422 -48.53490303 77.51037422 -49.47514343 78.04301453 C-51.41668687 79.14058196 -53.36437257 80.22667034 -55.3125 81.3125 C-56.63909637 82.05979381 -57.96527269 82.80783381 -59.29101562 83.55664062 C-62.52253515 85.37974146 -65.75966005 87.1926125 -69 89 C-72.44277838 85.87402413 -74.5754578 82.59477206 -76.85546875 78.5546875 C-77.20257401 77.94360138 -77.54967926 77.33251526 -77.90730286 76.70291138 C-79.00684436 74.76367408 -80.09721006 72.81945079 -81.1875 70.875 C-81.93105333 69.56086545 -82.67518827 68.24705979 -83.41992188 66.93359375 C-90.44247569 54.52651642 -90.44247569 54.52651642 -90 48 C-88.03104883 43.86036905 -85.97151135 42.01044335 -82.00390625 39.79296875 C-80.98458008 39.21466309 -79.96525391 38.63635742 -78.91503906 38.04052734 C-77.80870117 37.42902832 -76.70236328 36.8175293 -75.5625 36.1875 C-74.39870125 35.53202572 -73.23562817 34.87526153 -72.07324219 34.21728516 C-69.62981496 32.83622302 -67.18285859 31.46174454 -64.73291016 30.09228516 C-59.30601688 27.05573549 -53.9084268 23.96796621 -48.51022339 20.88079834 C-46.75398359 19.87727624 -44.99638278 18.87617366 -43.23852539 17.87548828 C-34.67626279 12.99153758 -26.1800505 8.00339676 -17.74902344 2.89599609 C-16.49653809 2.14503662 -16.49653809 2.14503662 -15.21875 1.37890625 C-14.49623047 0.9413501 -13.77371094 0.50379395 -13.02929688 0.05297852 C-8.18545993 -2.46043207 -5.09636984 -2.05642993 0 0 Z " fill="#1BD6F2" transform="translate(95,9)"/>
<path d="M0 0 C3.96 0 7.92 0 12 0 C12.33 6.6 12.66 13.2 13 20 C15.31 18.68 17.62 17.36 20 16 C24.82140001 15.17919866 29.39150126 15.34975583 33.9375 17.1875 C38.47458354 21.17463402 40.27730128 24.00226772 41 30 C41.0790131 32.45467356 41.1078047 34.91126356 41.09765625 37.3671875 C41.0962413 38.04677521 41.09482635 38.72636292 41.09336853 39.42654419 C41.08781518 41.57607612 41.07527169 43.72550008 41.0625 45.875 C41.05747896 47.34114432 41.05291711 48.80729029 41.04882812 50.2734375 C41.03786111 53.84899283 41.02062919 57.42448586 41 61 C36.71 61 32.42 61 28 61 C27.9906543 60.08186523 27.98130859 59.16373047 27.97167969 58.21777344 C27.92760069 54.80294722 27.86596268 51.38936892 27.79248047 47.97509766 C27.76429912 46.49897804 27.74307034 45.02270831 27.72900391 43.54638672 C27.70753302 41.42076943 27.66086957 39.29695121 27.609375 37.171875 C27.58842773 35.8940918 27.56748047 34.61630859 27.54589844 33.29980469 C26.91748232 29.50120352 26.0509856 28.27473297 23 26 C20.85296876 25.72923699 20.85296876 25.72923699 18.75 26.25 C17.5125 26.4975 16.275 26.745 15 27 C12.49693194 33.8478244 12.55695811 40.70845603 12.375 47.9375 C12.31699219 49.82178711 12.31699219 49.82178711 12.2578125 51.74414062 C12.16397049 54.82919678 12.08091515 57.91457774 12 61 C8.04 61 4.08 61 0 61 C0 40.87 0 20.74 0 0 Z " fill="#1BD6F2" transform="translate(170,35)"/>
<path d="M0 0 C5.04263389 3.99208516 8.62767228 7.88763258 10 14.375 C10 17.675 10 20.975 10 24.375 C0.43 24.375 -9.14 24.375 -19 24.375 C-16.74602997 30.89992418 -16.74602997 30.89992418 -12 34.375 C-8.91004903 34.45723366 -8.91004903 34.45723366 -6 33.375 C-5.55914062 32.69308594 -5.11828125 32.01117188 -4.6640625 31.30859375 C-3 29.375 -3 29.375 -0.37109375 29.1328125 C0.59699219 29.25398438 1.56507813 29.37515625 2.5625 29.5 C3.53316406 29.60570313 4.50382812 29.71140625 5.50390625 29.8203125 C8 30.375 8 30.375 10 32.375 C6.7207761 37.79833183 3.24002317 42.29499228 -3 44.375 C-10.96232228 44.99215586 -18.42905441 45.43213281 -25 40.375 C-30.06316677 35.58551792 -32.10802615 28.79387392 -32.375 21.9375 C-32.13430597 15.69039595 -30.47337917 9.88520155 -27.3125 4.5 C-20.07497313 -2.15070037 -9.12585754 -4.75263478 0 0 Z M-17 10.375 C-17.66 12.685 -18.32 14.995 -19 17.375 C-13.39 17.375 -7.78 17.375 -2 17.375 C-2.50378619 11.86676833 -2.50378619 11.86676833 -4.1875 9.5625 C-8.81441259 6.53107451 -12.90342267 6.73359792 -17 10.375 Z " fill="#1BD6F2" transform="translate(250,52.625)"/>
<path d="M0 0 C0 5.28 0 10.56 0 16 C2.64 16 5.28 16 8 16 C8 18.97 8 21.94 8 25 C5.36 25 2.72 25 0 25 C0 33.58 0 42.16 0 51 C2.64 51 5.28 51 8 51 C8.33 53.97 8.66 56.94 9 60 C5.83990467 61.05336511 3.4446864 61.20032888 0.125 61.25 C-1.41800781 61.28867188 -1.41800781 61.28867188 -2.9921875 61.328125 C-6.52241838 60.9430089 -8.26629912 60.26697147 -11 58 C-12.77915125 53.72464564 -13.23918331 50.11424712 -13.1953125 45.5078125 C-13.18886719 44.30898437 -13.18242187 43.11015625 -13.17578125 41.875 C-13.15064453 40.01875 -13.15064453 40.01875 -13.125 38.125 C-13.11597656 36.86429688 -13.10695312 35.60359375 -13.09765625 34.3046875 C-13.07415808 31.2029296 -13.04130334 28.10156348 -13 25 C-14.65 25 -16.3 25 -18 25 C-18 22.03 -18 19.06 -18 16 C-16.35 16 -14.7 16 -13 16 C-13.10441406 15.41992188 -13.20882812 14.83984375 -13.31640625 14.2421875 C-13.59226839 11.58865647 -13.6396167 9.60082553 -13 7 C-9.80028376 3.85846042 -4.63804607 0 0 0 Z " fill="#1BD6F2" transform="translate(155,36)"/>
<path d="M0 0 C0.99 0.66 1.98 1.32 3 2 C2.49202991 6.3177458 1.80317221 10.03302114 0 14 C-1.093125 13.814375 -2.18625 13.62875 -3.3125 13.4375 C-6.93624133 12.7421932 -6.93624133 12.7421932 -10 14 C-11.97772944 17.7056448 -12.29125846 21.0209112 -12.4140625 25.17578125 C-12.47207031 26.91118164 -12.47207031 26.91118164 -12.53125 28.68164062 C-12.57765625 30.47891602 -12.57765625 30.47891602 -12.625 32.3125 C-12.68300781 34.1387793 -12.68300781 34.1387793 -12.7421875 36.00195312 C-12.83627705 39.00105742 -12.91921991 42.00050771 -13 45 C-17.29 45 -21.58 45 -26 45 C-26 30.48 -26 15.96 -26 1 C-22.04 1 -18.08 1 -14 1 C-13.67 1.66 -13.34 2.32 -13 3 C-12.525625 2.505 -12.05125 2.01 -11.5625 1.5 C-7.85784706 -0.66857733 -4.20884445 -0.5968343 0 0 Z " fill="#1BD6F2" transform="translate(294,51)"/>
<path d="M0 0 C3 0.5 3 0.5 5 2.125 C6 4.5 6 4.5 5.1875 7.75 C4.795625 8.6575 4.40375 9.565 4 10.5 C1.1875 11.125 1.1875 11.125 -2 11.5 C-5 9.5 -5 9.5 -5.875 7.125 C-6 4.5 -6 4.5 -4.9375 2.1875 C-3 0.5 -3 0.5 0 0 Z " fill="#535353" transform="translate(66,74.5)"/>
<path d="M0 0 C2.9375 0.875 2.9375 0.875 4.9375 3.875 C4.6133631 7.19740324 4.32973697 8.48276303 1.9375 10.875 C-1.0625 11.125 -1.0625 11.125 -4.0625 10.875 C-6.0625 8.875 -6.0625 8.875 -6.375 5.9375 C-6.0625 2.875 -6.0625 2.875 -4.9375 0.9375 C-3.0625 -0.125 -3.0625 -0.125 0 0 Z " fill="#555555" transform="translate(73.0625,51.125)"/>
<path d="M0 0 C1.8125 1.1875 1.8125 1.1875 3 3 C3.4334014 5.88934264 3.42525784 7.35092224 1.8125 9.8125 C-0.64907776 11.42525784 -2.11065736 11.4334014 -5 11 C-6.8125 9.8125 -6.8125 9.8125 -8 8 C-8.4334014 5.11065736 -8.42525784 3.64907776 -6.8125 1.1875 C-4.35092224 -0.42525784 -2.88934264 -0.4334014 0 0 Z " fill="#4F4F4F" transform="translate(92,81)"/>
<path d="M0 0 C1.1446875 0.495 1.1446875 0.495 2.3125 1 C4.99069135 2.17436686 4.99069135 2.17436686 8 2 C7.34 3.32 6.68 4.64 6 6 C4.02 6 2.04 6 0 6 C-1 3 -1 3 0 0 Z " fill="#4A4A4A" transform="translate(69,56)"/>
<path d="M0 0 C-0.33 0.99 -0.66 1.98 -1 3 C-2.65 2.67 -4.3 2.34 -6 2 C-6 1.34 -6 0.68 -6 0 C-3.50907189 -1.24546405 -2.58919267 -0.7767578 0 0 Z " fill="#595959" transform="translate(69,83)"/>
</svg>
